<?xml version='1.0' encoding='iso-8859-1'?>
<svg version="1.1" xmlns="http://www.w3.org/2000/svg" viewBox="0 0 463 463" xmlns:xlink="http://www.w3.org/1999/xlink" enable-background="new 0 0 463 463">
  <g>
    <g>
      <path d="m423.5,56h-24.5v-8.5c0-4.143-3.358-7.5-7.5-7.5s-7.5,3.357-7.5,7.5v8.5h-25v-8.5c0-4.143-3.358-7.5-7.5-7.5s-7.5,3.357-7.5,7.5v8.5h-25v-8.5c0-4.143-3.358-7.5-7.5-7.5s-7.5,3.357-7.5,7.5v8.5h-25v-8.5c0-4.143-3.358-7.5-7.5-7.5s-7.5,3.357-7.5,7.5v8.5h-25v-8.5c0-4.143-3.358-7.5-7.5-7.5s-7.5,3.357-7.5,7.5v8.5h-25v-8.5c0-4.143-3.358-7.5-7.5-7.5s-7.5,3.357-7.5,7.5v8.5h-25v-8.5c0-4.143-3.358-7.5-7.5-7.5s-7.5,3.357-7.5,7.5v8.5h-25v-8.5c0-4.143-3.358-7.5-7.5-7.5s-7.5,3.357-7.5,7.5v8.5h-25v-8.5c0-4.143-3.358-7.5-7.5-7.5s-7.5,3.357-7.5,7.5v8.5h-24.5c-21.78,0-39.5,17.72-39.5,39.5v288c0,21.78 17.72,39.5 39.5,39.5h384c21.78,0 39.5-17.72 39.5-39.5v-288c0-21.78-17.72-39.5-39.5-39.5zm-384,15h24.5v8.5c0,4.143 3.358,7.5 7.5,7.5s7.5-3.357 7.5-7.5v-8.5h25v8.5c0,4.143 3.358,7.5 7.5,7.5s7.5-3.357 7.5-7.5v-8.5h25v8.5c0,4.143 3.358,7.5 7.5,7.5s7.5-3.357 7.5-7.5v-8.5h25v8.5c0,4.143 3.358,7.5 7.5,7.5s7.5-3.357 7.5-7.5v-8.5h25v8.5c0,4.143 3.358,7.5 7.5,7.5s7.5-3.357 7.5-7.5v-8.5h25v8.5c0,4.143 3.358,7.5 7.5,7.5s7.5-3.357 7.5-7.5v-8.5h25v8.5c0,4.143 3.358,7.5 7.5,7.5s7.5-3.357 7.5-7.5v-8.5h25v8.5c0,4.143 3.358,7.5 7.5,7.5s7.5-3.357 7.5-7.5v-8.5h25v8.5c0,4.143 3.358,7.5 7.5,7.5s7.5-3.357 7.5-7.5v-8.5h24.5c13.509,0 24.5,10.99 24.5,24.5v8.5h-433v-8.5c0-13.51 10.991-24.5 24.5-24.5zm384,337h-384c-13.509,0-24.5-10.99-24.5-24.5v-264.5h433v264.5c0,13.51-10.991,24.5-24.5,24.5z"/>
      <path d="m87.5,199h48c4.142,0 7.5-3.357 7.5-7.5s-3.358-7.5-7.5-7.5h-48c-4.142,0-7.5,3.357-7.5,7.5s3.358,7.5 7.5,7.5z"/>
      <path d="m87.5,271h48c4.142,0 7.5-3.357 7.5-7.5s-3.358-7.5-7.5-7.5h-48c-4.142,0-7.5,3.357-7.5,7.5s3.358,7.5 7.5,7.5z"/>
      <path d="m215.5,328h-48c-4.142,0-7.5,3.357-7.5,7.5s3.358,7.5 7.5,7.5h48c4.142,0 7.5-3.357 7.5-7.5s-3.358-7.5-7.5-7.5z"/>
      <path d="m215.5,256h-48c-4.142,0-7.5,3.357-7.5,7.5s3.358,7.5 7.5,7.5h48c4.142,0 7.5-3.357 7.5-7.5s-3.358-7.5-7.5-7.5z"/>
      <path d="m247.5,199h48c4.142,0 7.5-3.357 7.5-7.5s-3.358-7.5-7.5-7.5h-48c-4.142,0-7.5,3.357-7.5,7.5s3.358,7.5 7.5,7.5z"/>
      <path d="m295.5,328h-48c-4.142,0-7.5,3.357-7.5,7.5s3.358,7.5 7.5,7.5h48c4.142,0 7.5-3.357 7.5-7.5s-3.358-7.5-7.5-7.5z"/>
      <path d="m375.5,184h-48c-4.142,0-7.5,3.357-7.5,7.5s3.358,7.5 7.5,7.5h48c4.142,0 7.5-3.357 7.5-7.5s-3.358-7.5-7.5-7.5z"/>
      <path d="m375.5,328h-48c-4.142,0-7.5,3.357-7.5,7.5s3.358,7.5 7.5,7.5h48c4.142,0 7.5-3.357 7.5-7.5s-3.358-7.5-7.5-7.5z"/>
      <path d="m375.5,256h-48c-4.142,0-7.5,3.357-7.5,7.5s3.358,7.5 7.5,7.5h48c4.142,0 7.5-3.357 7.5-7.5s-3.358-7.5-7.5-7.5z"/>
      <path d="m210.197,162.196l-26.697,26.698-10.697-10.697c-2.929-2.928-7.678-2.928-10.606,0-2.929,2.93-2.929,7.678 0,10.607l16,16c1.464,1.464 3.384,2.196 5.303,2.196s3.839-0.732 5.303-2.196l32-32c2.929-2.93 2.929-7.678 0-10.607-2.928-2.928-7.678-2.928-10.606-0.001z"/>
      <path d="m290.197,234.196l-26.697,26.698-10.697-10.697c-2.929-2.928-7.678-2.928-10.606,0-2.929,2.93-2.929,7.678 0,10.607l16,16c1.464,1.464 3.384,2.196 5.303,2.196s3.839-0.732 5.303-2.196l32-32c2.929-2.93 2.929-7.678 0-10.607-2.928-2.928-7.678-2.928-10.606-0.001z"/>
      <path d="m130.197,306.196l-26.697,26.698-10.697-10.697c-2.929-2.928-7.678-2.928-10.606,0-2.929,2.93-2.929,7.678 0,10.607l16,16c1.464,1.464 3.384,2.196 5.303,2.196s3.839-0.732 5.303-2.196l32-32c2.929-2.93 2.929-7.678 0-10.607-2.928-2.928-7.678-2.928-10.606-0.001z"/>
    </g>
  </g>
</svg>
