<?xml version='1.0' encoding='utf-8'?>
<!DOCTYPE svg PUBLIC '-//W3C//DTD SVG 1.1//EN' 'http://www.w3.org/Graphics/SVG/1.1/DTD/svg11.dtd'>
<svg version="1.1" xmlns="http://www.w3.org/2000/svg" viewBox="0 0 512 512" xmlns:xlink="http://www.w3.org/1999/xlink" enable-background="new 0 0 512 512">
  <g>
    <g>
      <path d="M366.5,259.9c-10-5.1-22.3-1.2-27.5,8.9c-5.1,10-1.1,22.3,8.9,27.5c69.3,35.3,112.3,106,112.3,184.3    c0,11.3,9.1,20.4,20.4,20.4c11.3,0,20.4-9.1,20.4-20.4C501,386.8,449.4,302.2,366.5,259.9z"/>
      <path d="m143.3,261c-81.6,42.8-132.3,126.9-132.3,219.6 0,11.3 9.1,20.4 20.4,20.4 11.3,0 20.4-9.1 20.4-20.4 0-77.4 42.3-147.7 110.4-183.4 10-5.2 13.8-17.6 8.6-27.6-5.2-9.9-17.6-13.8-27.5-8.6z"/>
      <path d="M256,270.6c71,0,128.7-58.2,128.7-129.8C384.7,69.2,327,11,256,11S127.3,69.2,127.3,140.8    C127.3,212.4,185,270.6,256,270.6z M256,51.8c48.5,0,87.9,39.9,87.9,89c0,49.1-39.4,89-87.9,89s-87.9-39.9-87.9-89    C168.1,91.7,207.5,51.8,256,51.8z"/>
      <path d="m299,300.2c-1.7-9.7-10.2-16.8-20.1-16.8h-45.8c-9.9,0-18.4,7.1-20.1,16.8l-23.2,129.5c-1.6,8.9 2.9,17.9 11,21.9l46.9,23.2c7,3.3 11.7,3.7 18.4-0.1l45.2-23.2c8-4.1 12.4-12.9 10.8-21.8l-23.1-129.5zm-42.3,133.4l-23.9-11.8 17.5-97.6h11.6l17.5,97.8-22.7,11.6z"/>
    </g>
  </g>
</svg>
